<svg width="24" height="24" viewBox="0 0 24 24" fill="none" xmlns="http://www.w3.org/2000/svg">
<path fill-rule="evenodd" clip-rule="evenodd" d="M0 7C0 4.79086 1.79086 3 4 3H20C22.2091 3 24 4.79086 24 7V17C24 19.2091 22.2091 21 20 21H4C1.79086 21 0 19.2091 0 17V7ZM4 5H20C20.1792 5 20.3528 5.02356 20.518 5.06774L12.7071 12.8787C12.3166 13.2692 11.6834 13.2692 11.2929 12.8787L3.48196 5.06774C3.64718 5.02356 3.82084 5 4 5ZM2.06774 6.48196C2.02356 6.64718 2 6.82084 2 7V17C2 18.1046 2.89543 19 4 19H20C21.1046 19 22 18.1046 22 17V7C22 6.82084 21.9764 6.64718 21.9323 6.48196L14.1213 14.2929C12.9497 15.4645 11.0503 15.4645 9.87868 14.2929L2.06774 6.48196Z" fill="#3D78E6"/>
</svg>
