<svg width="24" height="24" viewBox="0 0 24 24" fill="none" xmlns="http://www.w3.org/2000/svg">
<path d="M8.2875 10.8643C8.64133 10.8788 8.98963 10.7729 9.27544 10.5638C9.41231 10.442 9.51879 10.2898 9.58636 10.1194C9.65392 9.94909 9.6807 9.7653 9.66456 9.58275C9.67372 9.36955 9.63127 9.15728 9.54081 8.964C9.46408 8.81011 9.34477 8.68149 9.19706 8.59344C9.04746 8.49651 8.87938 8.43167 8.70344 8.403C8.51254 8.36602 8.31829 8.3492 8.12387 8.35281H6.00087V10.8739H8.2875V10.8643Z" fill="#3D78E6"/>
<path d="M8.41125 15.4581C8.62523 15.461 8.83877 15.4379 9.04719 15.3894C9.23765 15.3473 9.41828 15.2691 9.57931 15.1591C9.73707 15.0491 9.86452 14.901 9.94987 14.7287C10.0488 14.5089 10.0943 14.2689 10.0826 14.0281C10.104 13.8088 10.075 13.5874 9.99762 13.381C9.92028 13.1746 9.79671 12.9886 9.63638 12.8374C9.29655 12.5871 8.88008 12.4631 8.45869 12.4868H6.00087V15.4581H8.41125Z" fill="#3D78E6"/>
<path d="M17.8795 11.3146C17.7299 11.1649 17.5499 11.0491 17.3517 10.9748C17.1536 10.9006 16.9418 10.8697 16.7307 10.8842C16.4506 10.8735 16.1725 10.9356 15.9236 11.0643C15.7262 11.173 15.552 11.3192 15.4107 11.4947C15.2855 11.6592 15.1922 11.8458 15.1357 12.0447C15.0847 12.2106 15.0529 12.3817 15.0408 12.5548H18.3525C18.3236 12.1036 18.1593 11.6715 17.8809 11.3153L17.8795 11.3146Z" fill="#3D78E6"/>
<path fill-rule="evenodd" clip-rule="evenodd" d="M0.562933 2.69513C0 3.77882 0 5.20255 0 8.05V15.95C0 18.7975 0 20.2212 0.562933 21.3049C1.03731 22.2181 1.78191 22.9627 2.69513 23.4371C3.77882 24 5.20255 24 8.05 24H15.95C18.7975 24 20.2212 24 21.3049 23.4371C22.2181 22.9627 22.9627 22.2181 23.4371 21.3049C24 20.2212 24 18.7975 24 15.95V8.05C24 5.20255 24 3.77882 23.4371 2.69513C22.9627 1.78191 22.2181 1.03731 21.3049 0.562933C20.2212 0 18.7975 0 15.95 0H8.05C5.20255 0 3.77882 0 2.69513 0.562933C1.78191 1.03731 1.03731 1.78191 0.562933 2.69513ZM8.57419 6.5C9.02452 6.49164 9.4742 6.53781 9.91344 6.6375C10.2833 6.71824 10.6344 6.86849 10.9481 7.08025C11.2379 7.29083 11.4672 7.57392 11.6129 7.90113C11.7805 8.30348 11.8613 8.73662 11.8501 9.17231C11.8692 9.65071 11.747 10.1241 11.4988 10.5336C11.2377 10.9203 10.8769 11.2291 10.4545 11.4273C11.0277 11.5818 11.527 11.9358 11.8625 12.4256C12.1846 12.9445 12.3465 13.5469 12.3279 14.1574C12.3386 14.6441 12.2379 15.1269 12.0337 15.5688C11.8449 15.9543 11.5685 16.2903 11.2266 16.5499C10.8745 16.8066 10.4784 16.9965 10.0578 17.1102C9.62166 17.2308 9.17109 17.2914 8.71856 17.2903H3.75V6.5H8.57419ZM15.5337 15.4183C15.7104 15.582 15.9185 15.7081 16.1454 15.789C16.3724 15.8698 16.6133 15.9037 16.8537 15.8885C17.2349 15.8981 17.6086 15.7822 17.9173 15.5585C18.1685 15.3952 18.3587 15.1535 18.4584 14.871H20.2534C20.0622 15.6753 19.5951 16.3871 18.9334 16.8826C18.2987 17.3039 17.5485 17.5173 16.7871 17.4931C16.2436 17.5003 15.7042 17.3981 15.201 17.1927C14.7458 17.0029 14.3375 16.7159 14.0047 16.3519C13.6732 15.9704 13.4185 15.5285 13.2547 15.0504C13.0708 14.516 12.9808 13.9538 12.9886 13.3888C12.9853 12.8331 13.0783 12.2811 13.2636 11.7573C13.5126 11.0204 13.9886 10.3813 14.6233 9.93168C15.2581 9.48209 16.0189 9.24513 16.7967 9.25481C17.3709 9.24281 17.9387 9.3772 18.4467 9.64531C18.9058 9.89708 19.3019 10.2497 19.6051 10.6766C19.9153 11.1245 20.1376 11.6273 20.2603 12.1581C20.3948 12.7282 20.4428 13.3152 20.4026 13.8996H15.0559C15.0126 14.4486 15.1839 14.993 15.5337 15.4183ZM18.7636 7.22049H14.6139V8.2813H18.7636V7.22049Z" fill="#3D78E6"/>
</svg>
