<svg width="24" height="24" viewBox="0 0 24 24" fill="none" xmlns="http://www.w3.org/2000/svg">
<path d="M17.8719 7.14798C20.5502 7.14798 23.2916 4.97428 24 2.29596H9.44394C5.33913 2.29596 1.15669 5.69237 0.191133 9.79233C-0.735603 13.7516 1.802 16.852 5.76125 16.852H8.032L6.75107 21.704C9.42938 21.704 12.1756 19.5303 12.884 16.852H15.31C17.9883 16.852 20.7346 14.6783 21.443 12H14.165L15.4459 7.14798H17.8719ZM9.31293 12H6.88692C5.49439 12 4.68411 10.821 5.1499 9.40902C5.3853 8.76787 5.80547 8.21088 6.35732 7.80843C6.90916 7.40599 7.56792 7.17616 8.25034 7.14798H10.5939L9.31293 12Z" fill="#2F3033"/>
</svg>
