<svg width="24" height="24" viewBox="0 0 24 24" fill="none" xmlns="http://www.w3.org/2000/svg">
<path d="M13.1093 6.28407V1.27271H15.5298V9.99998H13.2059V8.41475H13.115C12.9181 8.92611 12.5904 9.3371 12.1321 9.64771C11.6775 9.95831 11.1226 10.1136 10.4673 10.1136C9.88397 10.1136 9.37071 9.98104 8.92753 9.71589C8.48435 9.45074 8.13776 9.07384 7.88776 8.58521C7.64154 8.09657 7.51654 7.51134 7.51276 6.82952V1.27271H9.93321V6.39771C9.937 6.91286 10.0753 7.32005 10.348 7.6193C10.6207 7.91854 10.9862 8.06816 11.4446 8.06816C11.7362 8.06816 12.009 8.00187 12.2628 7.8693C12.5165 7.73293 12.7211 7.53217 12.8764 7.26702C13.0355 7.00187 13.1131 6.67422 13.1093 6.28407Z" fill="white"/>
<path d="M0.965881 9.99998V1.27271H3.31247V2.79543H3.40338C3.56247 2.25377 3.82952 1.84467 4.20452 1.56816C4.57952 1.28786 5.01134 1.14771 5.49997 1.14771C5.62118 1.14771 5.75187 1.15528 5.89202 1.17043C6.03217 1.18558 6.15528 1.20642 6.26134 1.23293V3.38066C6.1477 3.34657 5.9905 3.31627 5.78975 3.28975C5.58899 3.26324 5.40528 3.24998 5.23861 3.24998C4.88255 3.24998 4.56437 3.32763 4.28406 3.48293C4.00755 3.63445 3.78785 3.84657 3.62497 4.1193C3.46588 4.39202 3.38634 4.70642 3.38634 5.06248V9.99998H0.965881Z" fill="white"/>
<path d="M16.9488 17.9546V23H14.5284V14.2728H16.8352V15.8125H16.9375C17.1307 15.305 17.4545 14.9034 17.9091 14.608C18.3636 14.3087 18.9147 14.1591 19.5625 14.1591C20.1685 14.1591 20.6969 14.2917 21.1477 14.5568C21.5985 14.822 21.9488 15.2008 22.1988 15.6932C22.4488 16.1818 22.5738 16.7652 22.5738 17.4432V23H20.1534V17.875C20.1572 17.3409 20.0208 16.9243 19.7443 16.625C19.4678 16.322 19.0871 16.1705 18.6022 16.1705C18.2765 16.1705 17.9886 16.2406 17.7386 16.3807C17.4924 16.5209 17.2992 16.7254 17.1591 16.9943C17.0227 17.2595 16.9526 17.5796 16.9488 17.9546Z" fill="white"/>
<path d="M8.94319 23.1705C8.04547 23.1705 7.27274 22.9887 6.62501 22.625C5.98107 22.2576 5.48486 21.7387 5.13637 21.0682C4.78789 20.394 4.61365 19.5966 4.61365 18.6762C4.61365 17.7784 4.78789 16.9906 5.13637 16.3125C5.48486 15.6345 5.97539 15.1061 6.60797 14.7273C7.24433 14.3485 7.99054 14.1591 8.8466 14.1591C9.42236 14.1591 9.95834 14.2519 10.4546 14.4375C10.9546 14.6193 11.3902 14.894 11.7614 15.2614C12.1364 15.6288 12.428 16.0909 12.6364 16.6478C12.8447 17.2008 12.9489 17.8485 12.9489 18.5909V19.2557H5.57956V17.7557H10.6705C10.6705 17.4072 10.5947 17.0985 10.4432 16.8296C10.2917 16.5606 10.0815 16.3504 9.81251 16.1989C9.54736 16.0436 9.23865 15.9659 8.88637 15.9659C8.51895 15.9659 8.19319 16.0512 7.9091 16.2216C7.6288 16.3883 7.4091 16.6137 7.25001 16.8978C7.09092 17.1781 7.00948 17.4906 7.00569 17.8353V19.2614C7.00569 19.6932 7.08524 20.0663 7.24433 20.3807C7.40721 20.6951 7.63637 20.9375 7.93183 21.108C8.22728 21.2784 8.57766 21.3637 8.98297 21.3637C9.2519 21.3637 9.49812 21.3258 9.7216 21.25C9.94509 21.1743 10.1364 21.0606 10.2955 20.9091C10.4546 20.7576 10.5758 20.572 10.6591 20.3523L12.8977 20.5C12.7841 21.0379 12.5511 21.5076 12.1989 21.9091C11.8504 22.3068 11.3996 22.6175 10.8466 22.8409C10.2974 23.0606 9.66289 23.1705 8.94319 23.1705Z" fill="white"/>
</svg>
