<svg width="24" height="24" viewBox="0 0 24 24" fill="none" xmlns="http://www.w3.org/2000/svg">
<path d="M4.70711 2.29289C4.31658 1.90237 3.68342 1.90237 3.29289 2.29289C2.90237 2.68342 2.90237 3.31658 3.29289 3.70711L11.0858 11.5L3.29289 19.2929C2.90237 19.6834 2.90237 20.3166 3.29289 20.7071C3.68342 21.0976 4.31658 21.0976 4.70711 20.7071L12.5 12.9142L20.2929 20.7071C20.6834 21.0976 21.3166 21.0976 21.7071 20.7071C22.0976 20.3166 22.0976 19.6834 21.7071 19.2929L13.9142 11.5L21.7071 3.70711C22.0976 3.31658 22.0976 2.68342 21.7071 2.29289C21.3166 1.90237 20.6834 1.90237 20.2929 2.29289L12.5 10.0858L4.70711 2.29289Z" fill="#2F3033"/>
</svg>
